<svg xmlns="http://www.w3.org/2000/svg" width="720" height="480" viewBox="0 0 720 480"><defs><linearGradient id="pbg" x1="0" y1="0" x2="1" y2="1"><stop stop-color="#dfeeda"/><stop offset="1" stop-color="#fff"/></linearGradient></defs><rect width="720" height="480" fill="url(#pbg)"/><circle cx="610" cy="90" r="150" fill="#a9d47a" opacity=".16"/><g><path d="M45 435 Q40 284 45 224" stroke="#a9d47a" stroke-width="6" fill="none"/><ellipse cx="32" cy="233" rx="24" ry="15" fill="#68a942" transform="rotate(-26 32 233)"/><ellipse cx="61" cy="228" rx="26" ry="15" fill="#68a942" transform="rotate(26 61 228)"/><path d="M91 435 Q86 255 91 195" stroke="#a9d47a" stroke-width="6" fill="none"/><ellipse cx="78" cy="204" rx="24" ry="15" fill="#2f7d32" transform="rotate(-26 78 204)"/><ellipse cx="107" cy="199" rx="26" ry="15" fill="#2f7d32" transform="rotate(26 107 199)"/><path d="M137 435 Q132 376 137 316" stroke="#a9d47a" stroke-width="6" fill="none"/><ellipse cx="124" cy="325" rx="24" ry="15" fill="#2f7d32" transform="rotate(-26 124 325)"/><ellipse cx="153" cy="320" rx="26" ry="15" fill="#2f7d32" transform="rotate(26 153 320)"/><path d="M183 435 Q178 347 183 287" stroke="#a9d47a" stroke-width="6" fill="none"/><ellipse cx="170" cy="296" rx="24" ry="15" fill="#2f7d32" transform="rotate(-26 170 296)"/><ellipse cx="199" cy="291" rx="26" ry="15" fill="#2f7d32" transform="rotate(26 199 291)"/><path d="M229 435 Q224 318 229 258" stroke="#a9d47a" stroke-width="6" fill="none"/><ellipse cx="216" cy="267" rx="24" ry="15" fill="#68a942" transform="rotate(-26 216 267)"/><ellipse cx="245" cy="262" rx="26" ry="15" fill="#68a942" transform="rotate(26 245 262)"/><path d="M275 435 Q270 289 275 229" stroke="#a9d47a" stroke-width="6" fill="none"/><ellipse cx="262" cy="238" rx="24" ry="15" fill="#2f7d32" transform="rotate(-26 262 238)"/><ellipse cx="291" cy="233" rx="26" ry="15" fill="#2f7d32" transform="rotate(26 291 233)"/><path d="M321 435 Q316 260 321 200" stroke="#a9d47a" stroke-width="6" fill="none"/><ellipse cx="308" cy="209" rx="24" ry="15" fill="#2f7d32" transform="rotate(-26 308 209)"/><ellipse cx="337" cy="204" rx="26" ry="15" fill="#2f7d32" transform="rotate(26 337 204)"/><path d="M367 435 Q362 231 367 171" stroke="#a9d47a" stroke-width="6" fill="none"/><ellipse cx="354" cy="180" rx="24" ry="15" fill="#2f7d32" transform="rotate(-26 354 180)"/><ellipse cx="383" cy="175" rx="26" ry="15" fill="#2f7d32" transform="rotate(26 383 175)"/><path d="M413 435 Q408 352 413 292" stroke="#a9d47a" stroke-width="6" fill="none"/><ellipse cx="400" cy="301" rx="24" ry="15" fill="#68a942" transform="rotate(-26 400 301)"/><ellipse cx="429" cy="296" rx="26" ry="15" fill="#68a942" transform="rotate(26 429 296)"/><path d="M459 435 Q454 323 459 263" stroke="#a9d47a" stroke-width="6" fill="none"/><ellipse cx="446" cy="272" rx="24" ry="15" fill="#2f7d32" transform="rotate(-26 446 272)"/><ellipse cx="475" cy="267" rx="26" ry="15" fill="#2f7d32" transform="rotate(26 475 267)"/><path d="M505 435 Q500 294 505 234" stroke="#a9d47a" stroke-width="6" fill="none"/><ellipse cx="492" cy="243" rx="24" ry="15" fill="#2f7d32" transform="rotate(-26 492 243)"/><ellipse cx="521" cy="238" rx="26" ry="15" fill="#2f7d32" transform="rotate(26 521 238)"/><path d="M551 435 Q546 265 551 205" stroke="#a9d47a" stroke-width="6" fill="none"/><ellipse cx="538" cy="214" rx="24" ry="15" fill="#2f7d32" transform="rotate(-26 538 214)"/><ellipse cx="567" cy="209" rx="26" ry="15" fill="#2f7d32" transform="rotate(26 567 209)"/><path d="M597 435 Q592 236 597 176" stroke="#a9d47a" stroke-width="6" fill="none"/><ellipse cx="584" cy="185" rx="24" ry="15" fill="#68a942" transform="rotate(-26 584 185)"/><ellipse cx="613" cy="180" rx="26" ry="15" fill="#68a942" transform="rotate(26 613 180)"/><path d="M643 435 Q638 357 643 297" stroke="#a9d47a" stroke-width="6" fill="none"/><ellipse cx="630" cy="306" rx="24" ry="15" fill="#2f7d32" transform="rotate(-26 630 306)"/><ellipse cx="659" cy="301" rx="26" ry="15" fill="#2f7d32" transform="rotate(26 659 301)"/></g><rect y="430" width="720" height="50" fill="#173c1c" opacity=".18"/></svg>